<mxfile host="Electron" agent="Mozilla/5.0 (Windows NT 10.0; Win64; x64) AppleWebKit/537.36 (KHTML, like Gecko) draw.io/24.7.17 Chrome/128.0.6613.36 Electron/32.0.1 Safari/537.36" version="24.7.17">
  <diagram name="Page-1" id="zDsK-f4dkhqP2D1DQcXG">
    <mxGraphModel dx="1105" dy="763" grid="1" gridSize="10" guides="1" tooltips="1" connect="1" arrows="1" fold="1" page="1" pageScale="1" pageWidth="3300" pageHeight="2339" math="0" shadow="0">
      <root>
        <mxCell id="0" />
        <mxCell id="1" parent="0" />
        <mxCell id="JGt5DIb0zH9buw5RbC4D-19" style="edgeStyle=orthogonalEdgeStyle;rounded=0;orthogonalLoop=1;jettySize=auto;html=1;" edge="1" parent="1" source="JGt5DIb0zH9buw5RbC4D-1" target="JGt5DIb0zH9buw5RbC4D-18">
          <mxGeometry relative="1" as="geometry">
            <Array as="points">
              <mxPoint x="500" y="290" />
              <mxPoint x="500" y="290" />
            </Array>
          </mxGeometry>
        </mxCell>
        <mxCell id="JGt5DIb0zH9buw5RbC4D-1" value="" style="dashed=0;outlineConnect=0;html=1;align=center;labelPosition=center;verticalLabelPosition=bottom;verticalAlign=top;shape=mxgraph.weblogos.github" vertex="1" parent="1">
          <mxGeometry x="280" y="240" width="75" height="75" as="geometry" />
        </mxCell>
        <mxCell id="JGt5DIb0zH9buw5RbC4D-5" style="edgeStyle=orthogonalEdgeStyle;rounded=0;orthogonalLoop=1;jettySize=auto;html=1;" edge="1" parent="1" source="JGt5DIb0zH9buw5RbC4D-2" target="JGt5DIb0zH9buw5RbC4D-1">
          <mxGeometry relative="1" as="geometry" />
        </mxCell>
        <mxCell id="JGt5DIb0zH9buw5RbC4D-2" value="developer" style="strokeColor=#dddddd;shadow=1;strokeWidth=1;rounded=1;absoluteArcSize=1;arcSize=2;labelPosition=center;verticalLabelPosition=middle;align=center;verticalAlign=bottom;spacingLeft=0;fontColor=#999999;fontSize=12;whiteSpace=wrap;spacingBottom=2;html=1;" vertex="1" parent="1">
          <mxGeometry x="282.5" y="440" width="70" height="85" as="geometry" />
        </mxCell>
        <mxCell id="JGt5DIb0zH9buw5RbC4D-3" value="" style="sketch=0;dashed=0;connectable=0;html=1;fillColor=#757575;strokeColor=none;shape=mxgraph.gcp2.laptop;part=1;" vertex="1" parent="JGt5DIb0zH9buw5RbC4D-2">
          <mxGeometry x="0.5" width="50" height="33" relative="1" as="geometry">
            <mxPoint x="-25" y="18.5" as="offset" />
          </mxGeometry>
        </mxCell>
        <mxCell id="JGt5DIb0zH9buw5RbC4D-20" style="edgeStyle=orthogonalEdgeStyle;rounded=0;orthogonalLoop=1;jettySize=auto;html=1;" edge="1" parent="1" source="JGt5DIb0zH9buw5RbC4D-18" target="JGt5DIb0zH9buw5RbC4D-1">
          <mxGeometry relative="1" as="geometry">
            <Array as="points">
              <mxPoint x="500" y="260" />
              <mxPoint x="500" y="260" />
            </Array>
          </mxGeometry>
        </mxCell>
        <mxCell id="JGt5DIb0zH9buw5RbC4D-22" style="edgeStyle=orthogonalEdgeStyle;rounded=0;orthogonalLoop=1;jettySize=auto;html=1;" edge="1" parent="1" source="JGt5DIb0zH9buw5RbC4D-18" target="JGt5DIb0zH9buw5RbC4D-21">
          <mxGeometry relative="1" as="geometry" />
        </mxCell>
        <mxCell id="JGt5DIb0zH9buw5RbC4D-26" style="edgeStyle=orthogonalEdgeStyle;rounded=0;orthogonalLoop=1;jettySize=auto;html=1;" edge="1" parent="1" source="JGt5DIb0zH9buw5RbC4D-18" target="JGt5DIb0zH9buw5RbC4D-23">
          <mxGeometry relative="1" as="geometry">
            <Array as="points">
              <mxPoint x="610" y="500" />
            </Array>
          </mxGeometry>
        </mxCell>
        <mxCell id="JGt5DIb0zH9buw5RbC4D-18" value="" style="shape=image;verticalLabelPosition=bottom;labelBackgroundColor=default;verticalAlign=top;aspect=fixed;imageAspect=0;image=https://upload.wikimedia.org/wikipedia/commons/thumb/e/e9/Jenkins_logo.svg/1200px-Jenkins_logo.svg.png;" vertex="1" parent="1">
          <mxGeometry x="560" y="209.15000000000003" width="99" height="136.71" as="geometry" />
        </mxCell>
        <mxCell id="JGt5DIb0zH9buw5RbC4D-21" value="" style="image;sketch=0;aspect=fixed;html=1;points=[];align=center;fontSize=12;image=img/lib/mscae/Docker.svg;" vertex="1" parent="1">
          <mxGeometry x="820" y="216.01" width="150" height="123" as="geometry" />
        </mxCell>
        <mxCell id="JGt5DIb0zH9buw5RbC4D-25" style="edgeStyle=orthogonalEdgeStyle;rounded=0;orthogonalLoop=1;jettySize=auto;html=1;" edge="1" parent="1" source="JGt5DIb0zH9buw5RbC4D-23" target="JGt5DIb0zH9buw5RbC4D-21">
          <mxGeometry relative="1" as="geometry" />
        </mxCell>
        <mxCell id="JGt5DIb0zH9buw5RbC4D-23" value="" style="sketch=0;points=[[0,0,0],[0.25,0,0],[0.5,0,0],[0.75,0,0],[1,0,0],[0,1,0],[0.25,1,0],[0.5,1,0],[0.75,1,0],[1,1,0],[0,0.25,0],[0,0.5,0],[0,0.75,0],[1,0.25,0],[1,0.5,0],[1,0.75,0]];outlineConnect=0;fontColor=#232F3E;fillColor=#ED7100;strokeColor=#ffffff;dashed=0;verticalLabelPosition=bottom;verticalAlign=top;align=center;html=1;fontSize=12;fontStyle=0;aspect=fixed;shape=mxgraph.aws4.resourceIcon;resIcon=mxgraph.aws4.ec2;" vertex="1" parent="1">
          <mxGeometry x="856" y="460" width="78" height="78" as="geometry" />
        </mxCell>
        <mxCell id="JGt5DIb0zH9buw5RbC4D-24" value="instance" style="text;html=1;align=center;verticalAlign=middle;whiteSpace=wrap;rounded=0;" vertex="1" parent="1">
          <mxGeometry x="865" y="540" width="60" height="30" as="geometry" />
        </mxCell>
        <mxCell id="JGt5DIb0zH9buw5RbC4D-27" value="" style="html=1;verticalLabelPosition=bottom;align=center;labelBackgroundColor=#ffffff;verticalAlign=top;strokeWidth=2;strokeColor=#000C17;shadow=0;dashed=0;shape=mxgraph.ios7.icons.reload;" vertex="1" parent="1">
          <mxGeometry x="598" y="170" width="24" height="27" as="geometry" />
        </mxCell>
        <mxCell id="JGt5DIb0zH9buw5RbC4D-28" value="initializing&amp;nbsp;&lt;div&gt;job&lt;/div&gt;" style="text;html=1;align=center;verticalAlign=middle;whiteSpace=wrap;rounded=0;" vertex="1" parent="1">
          <mxGeometry x="580" y="130" width="60" height="30" as="geometry" />
        </mxCell>
        <mxCell id="JGt5DIb0zH9buw5RbC4D-29" value="pushing commit" style="text;html=1;align=center;verticalAlign=middle;whiteSpace=wrap;rounded=0;" vertex="1" parent="1">
          <mxGeometry x="330" y="370" width="60" height="30" as="geometry" />
        </mxCell>
        <mxCell id="JGt5DIb0zH9buw5RbC4D-30" value="sending webhook" style="text;html=1;align=center;verticalAlign=middle;whiteSpace=wrap;rounded=0;" vertex="1" parent="1">
          <mxGeometry x="430" y="293" width="60" height="30" as="geometry" />
        </mxCell>
        <mxCell id="JGt5DIb0zH9buw5RbC4D-31" value="cloning repo" style="text;html=1;align=center;verticalAlign=middle;whiteSpace=wrap;rounded=0;" vertex="1" parent="1">
          <mxGeometry x="430" y="230" width="60" height="30" as="geometry" />
        </mxCell>
        <mxCell id="JGt5DIb0zH9buw5RbC4D-32" value="pushing images" style="text;html=1;align=center;verticalAlign=middle;whiteSpace=wrap;rounded=0;" vertex="1" parent="1">
          <mxGeometry x="710" y="240" width="60" height="30" as="geometry" />
        </mxCell>
        <mxCell id="JGt5DIb0zH9buw5RbC4D-33" value="ssh command to pull images and restart docker compose" style="text;html=1;align=center;verticalAlign=middle;whiteSpace=wrap;rounded=0;" vertex="1" parent="1">
          <mxGeometry x="610" y="390" width="120" height="30" as="geometry" />
        </mxCell>
        <mxCell id="JGt5DIb0zH9buw5RbC4D-34" value="pulling images" style="text;html=1;align=center;verticalAlign=middle;whiteSpace=wrap;rounded=0;" vertex="1" parent="1">
          <mxGeometry x="900" y="390" width="100" height="30" as="geometry" />
        </mxCell>
        <mxCell id="JGt5DIb0zH9buw5RbC4D-36" value="" style="html=1;verticalLabelPosition=bottom;align=center;labelBackgroundColor=#ffffff;verticalAlign=top;strokeWidth=2;strokeColor=#000C17;shadow=0;dashed=0;shape=mxgraph.ios7.icons.reload;" vertex="1" parent="1">
          <mxGeometry x="960" y="485.5" width="24" height="27" as="geometry" />
        </mxCell>
        <mxCell id="JGt5DIb0zH9buw5RbC4D-37" value="upping new containers" style="text;html=1;align=center;verticalAlign=middle;whiteSpace=wrap;rounded=0;" vertex="1" parent="1">
          <mxGeometry x="1010" y="484" width="60" height="30" as="geometry" />
        </mxCell>
      </root>
    </mxGraphModel>
  </diagram>
</mxfile>
